# xmcd
#
# Track frame offsets: 
#        150
#        19232
#        34631
#        50919
#        66104
#        82334
#        95944
#        118468
#        134167
#        153190
#        167643
#
# Disc length: 2410 seconds
#
# Revision: 0
# Processed by: cddbd v1.5.2PL0 Copyright (c) Steve Scherf et al.
# Submitted via: ExactAudioCopy v1.0b4
#
DISCID=a609680b
DTITLE=Delta Moon - You'll Never Get To Heaven On A Hellbound Train
DYEAR=2009
DGENRE=Blues Rock
TTITLE0=Hellbound Train
TTITLE1=Room 429
TTITLE2=Lonely
TTITLE3=Get Gone
TTITLE4=True Love Lies
TTITLE5=You Got To Move
TTITLE6=Stuck In Carolina
TTITLE7=Ain't No Train
TTITLE8=Ghost In My Guitar
TTITLE9=Take The Back Road Home
TTITLE10=Plantation Song
EXTD=
EXTT0=
EXTT1=
EXTT2=
EXTT3=
EXTT4=
EXTT5=
EXTT6=
EXTT7=
EXTT8=
EXTT9=
EXTT10=
PLAYORDER=
